<svg width="247" height="230" viewBox="0 0 247 230" fill="none" xmlns="http://www.w3.org/2000/svg">
<path d="M123.5 196.678C176.355 196.678 219.202 194.346 219.202 191.47C219.202 188.595 176.355 186.263 123.5 186.263C70.6449 186.263 27.7975 188.595 27.7975 191.47C27.7975 194.346 70.6449 196.678 123.5 196.678Z" fill="#F5F5F5"/>
<path d="M95.5579 55.039C91.7129 57.9922 87.9566 62.7532 90.1581 67.919C92.3595 73.0848 106.447 73.6046 109.408 71.4794C113.258 68.7194 109.857 56.4282 106.856 56.3546C106.629 51.796 98.7712 52.5688 95.5579 55.039Z" fill="#263238"/>
<path d="M90.1727 104.788C90.1727 104.788 91.7176 130.98 93.4205 145.162C93.5933 158.479 96.8757 188.563 96.8757 188.563H100.484C101.091 173.636 105.548 159.698 102.587 146.533C109.497 120.681 104.763 104.806 104.763 104.806L90.1727 104.788Z" fill="#FFB573"/>
<path d="M94.1017 104.806C94.1017 104.806 101.53 133.86 103.564 146.234C105.706 159.233 108.895 184.46 108.747 188.554H111.861C111.861 188.554 117.093 163.033 112.251 146.694C116.244 109.894 106.392 104.834 106.392 104.834L94.1017 104.806Z" fill="#FFB573"/>
<path d="M76.2882 71.2034C76.0562 69.6347 72.9663 69.5014 72.9663 69.5014L71.4855 68.8068C71.2256 68.6584 70.914 68.6101 70.6165 68.6719C70.319 68.7337 70.059 68.9008 69.8912 69.138L69.3976 69.9016C69.2539 70.2021 69.2301 70.5406 69.3306 70.8561C69.431 71.1715 69.6491 71.4432 69.9455 71.622L70.3947 71.9256C71.1588 72.4345 72.063 72.7298 73.0009 72.7766L74.3681 72.8456C74.6684 72.8617 74.9693 72.8274 75.2566 72.7444C75.5967 72.6447 75.8869 72.4339 76.0737 72.1508C76.2605 71.8677 76.3314 71.5313 76.2734 71.2034H76.2882Z" fill="#FFB573"/>
<path d="M92.5618 80.3803C92.3743 80.5597 92.2755 80.6471 92.1373 80.7621L91.7474 81.0841C91.4907 81.2865 91.2242 81.4751 90.9626 81.6637C90.4295 82.0317 89.8866 82.3721 89.3288 82.6941C88.2095 83.3219 87.0336 83.8575 85.8144 84.2949C83.3863 85.1752 80.8084 85.6426 78.2033 85.6749H77.9762C77.8573 85.6726 77.7386 85.6634 77.6208 85.6473C77.389 85.6157 77.162 85.5586 76.9446 85.4771C76.5786 85.3365 76.2439 85.1338 75.9574 84.8791C75.5865 84.5395 75.2839 84.1407 75.064 83.7015C74.7562 83.0795 74.526 82.4267 74.3779 81.7557C74.1162 80.601 73.9512 79.4291 73.8843 78.2505C73.7507 75.9932 73.8002 73.7297 74.0324 71.4793C74.0599 71.2278 74.1857 70.9945 74.3857 70.8238C74.5858 70.6531 74.8462 70.5568 75.1175 70.5534C75.3887 70.55 75.6518 70.6397 75.8568 70.8053C76.0617 70.9709 76.1941 71.201 76.2289 71.4517V71.4793C76.4954 73.6229 76.8015 75.7987 77.2161 77.8825C77.3989 78.8917 77.6511 79.8889 77.9713 80.8679C78.0987 81.2684 78.2743 81.6541 78.4945 82.0179C78.5833 82.1513 78.6722 82.2157 78.6327 82.1697C78.5674 82.1038 78.4861 82.0534 78.3958 82.0225C78.3157 81.9886 78.231 81.9654 78.144 81.9535H78.0108C79.0719 81.8632 80.1244 81.7002 81.1599 81.4659C82.1859 81.2271 83.1922 80.9197 84.1708 80.5459C85.1453 80.1572 86.0846 79.6957 86.9793 79.1659C87.4285 78.9083 87.8628 78.6369 88.2824 78.3471C88.4897 78.2045 88.6871 78.0573 88.8846 77.9101L89.1709 77.6893L89.388 77.5099L89.5164 77.4041C89.9468 77.0448 90.5108 76.8564 91.0882 76.8791C91.6655 76.9017 92.2105 77.1337 92.6071 77.5254C93.0036 77.9171 93.2203 78.4377 93.2109 78.9762C93.2015 79.5146 92.9668 80.0284 92.5569 80.4079L92.5618 80.3803Z" fill="#FFB573"/>
<path d="M94.9902 75.2743C91.0859 74.6671 86.9891 77.1419 84.8667 79.1567C83.7709 82.2295 87.2803 85.9647 87.2803 85.9647C87.2803 85.9647 92.2804 83.1035 94.082 81.1485C95.8836 79.1935 97.241 75.6239 94.9902 75.2743Z" fill="#E0E0E0"/>
<path d="M107.083 104.457C107.083 104.457 112.592 108.1 113.628 120.212C114.043 124.982 114.788 144.012 116.358 152.2C110.706 155.963 93.7859 155.448 91.1353 153.249C91.8855 136.689 85.0937 114.724 90.0198 104.622C98.1739 103.689 107.083 104.457 107.083 104.457Z" fill="#263238"/>
<path opacity="0.2" d="M101.496 139.191C101.57 132.232 100.469 122.654 97.1276 116.978C98.2678 124.062 101.496 139.191 101.496 139.191Z" fill="black"/>
<path d="M87.4333 80.8864C87.4333 84.8286 84.0621 86.8986 87.8775 89.9346C88.1046 93.3386 88.3711 99.4336 89.4916 104.986C90.6515 106.49 99.1314 106.366 107.942 104.586C106.792 99.8246 107.216 92.069 110.232 81.4614C110.393 80.8727 110.421 80.2595 110.316 79.66C110.21 79.0606 109.973 78.488 109.619 77.978C109.265 77.468 108.802 77.0316 108.259 76.6962C107.715 76.3608 107.103 76.1336 106.461 76.0288C105.736 75.9092 104.98 75.7988 104.181 75.7068C101.425 75.3282 98.6442 75.1345 95.8589 75.1272C94.9606 75.1272 94.0277 75.1824 93.1392 75.2376C91.5957 75.3265 90.1466 75.9601 89.0866 77.0095C88.0266 78.0589 87.4354 79.4452 87.4333 80.8864Z" fill="#E0E0E0"/>
<path d="M105.433 87.731L95.0923 89.9134C94.6988 89.9964 94.4521 90.361 94.5412 90.7277L97.8892 104.505C97.9783 104.872 98.3695 105.102 98.763 105.019L109.103 102.837C109.497 102.754 109.744 102.389 109.655 102.022L106.307 88.2446C106.218 87.8779 105.826 87.648 105.433 87.731Z" fill="#2F80ED"/>
<path d="M96.8807 80.2101C96.8807 80.2101 95.2075 82.0777 93.8254 82.5101L93.6675 83.4301C95.4151 83.2221 97.0281 82.4468 98.2233 81.2405L96.8807 80.2101Z" fill="#2F80ED"/>
<path d="M92.3348 79.0831C92.3348 79.0831 92.2657 81.5119 92.9864 82.6987L92.4483 83.4899C91.2848 82.2558 90.6243 80.6795 90.5826 79.0371L92.3348 79.0831Z" fill="#2F80ED"/>
<path d="M103.84 66.9575C103.179 69.4047 102.404 73.9173 104.181 75.6975C104.181 75.6975 97.5619 77.3811 93.2479 82.9011C91.2735 77.1005 95.8787 75.1179 95.8787 75.1179C98.8945 74.6579 98.934 72.6063 98.5194 70.6375L103.84 66.9575Z" fill="#FFB573"/>
<path opacity="0.2" d="M101.673 68.4617L98.5244 70.6467C98.6261 71.101 98.6856 71.5628 98.702 72.0267C99.8472 71.9531 101.476 70.8997 101.664 69.8003C101.75 69.358 101.753 68.905 101.673 68.4617Z" fill="black"/>
<path d="M106.91 62.5967C105.642 66.5619 105.198 68.2685 102.527 69.8279C98.5095 72.1693 93.6427 69.7589 93.613 65.4993C93.613 61.6629 95.6713 55.8393 100.247 55.2045C104.822 54.5697 108.199 58.6269 106.91 62.5967Z" fill="#FFB573"/>
<path d="M103.594 56.8053C102.394 60.6279 103.421 64.6253 105.869 65.0853C109.27 63.9031 109.102 60.3841 108.233 58.7741C107.365 57.1641 104.285 54.6019 103.594 56.8053Z" fill="#263238"/>
<path d="M105.454 63.6731C103.564 64.2573 103.198 65.4395 103.198 65.4395C103.198 65.4395 104.497 64.5839 105.74 64.7449C105.56 64.4122 105.462 64.0459 105.454 63.6731Z" fill="#263238"/>
<path d="M100.731 62.2242C100.647 62.5508 100.395 62.7716 100.163 62.721C99.931 62.6704 99.8076 62.353 99.8915 62.0264C99.9754 61.6998 100.227 61.4744 100.459 61.5296C100.691 61.5848 100.795 61.8976 100.731 62.2242Z" fill="#263238"/>
<path d="M96.3525 61.2535C96.2686 61.5801 96.0169 61.8009 95.7849 61.7457C95.5529 61.6905 95.4295 61.3823 95.5134 61.0511C95.5973 60.7199 95.8491 60.5037 96.0811 60.5589C96.3131 60.6141 96.4414 60.9223 96.3525 61.2535Z" fill="#263238"/>
<path d="M96.1897 60.6003L95.395 60.1725C95.395 60.1725 95.6764 60.8901 96.1897 60.6003Z" fill="#263238"/>
<path d="M97.1818 61.7871C96.68 62.4607 96.0785 63.0647 95.395 63.5811C95.5451 63.7432 95.7307 63.8734 95.9393 63.9631C96.1479 64.0527 96.3746 64.0997 96.6043 64.1009L97.1818 61.7871Z" fill="#ED893E"/>
<path d="M106.935 66.5757C106.674 66.8617 106.349 67.0919 105.984 67.2506C105.619 67.4094 105.221 67.4929 104.818 67.4957C103.786 67.4681 103.608 66.3641 104.176 65.4579C104.67 64.6391 105.835 63.6685 106.733 64.1331C107.631 64.5977 107.636 65.8305 106.935 66.5757Z" fill="#FFB573"/>
<path d="M101.555 60.8165C101.502 60.792 101.461 60.7491 101.441 60.6969C101.362 60.4564 101.225 60.2359 101.04 60.0525C100.855 59.8691 100.628 59.7276 100.375 59.6389C100.321 59.6249 100.274 59.5915 100.246 59.546C100.217 59.5004 100.209 59.4463 100.222 59.3951C100.228 59.3698 100.24 59.3461 100.257 59.3252C100.273 59.3044 100.294 59.287 100.318 59.274C100.342 59.2611 100.369 59.2529 100.397 59.25C100.424 59.2471 100.452 59.2495 100.479 59.2571C100.802 59.3619 101.094 59.536 101.331 59.7653C101.569 59.9946 101.745 60.2728 101.846 60.5773C101.856 60.6017 101.86 60.6278 101.859 60.6538C101.858 60.6799 101.851 60.7054 101.838 60.7288C101.825 60.7521 101.808 60.7728 101.786 60.7895C101.765 60.8062 101.74 60.8185 101.713 60.8257C101.661 60.8413 101.604 60.838 101.555 60.8165Z" fill="#263238"/>
<path d="M94.7633 59.2939C94.7072 59.2956 94.6526 59.2775 94.6103 59.2433C94.5713 59.2056 94.5496 59.1553 94.5496 59.103C94.5496 59.0507 94.5713 59.0004 94.6103 58.9627C94.8303 58.7255 95.1086 58.5415 95.4214 58.4261C95.7342 58.3108 96.0723 58.2676 96.4069 58.3003C96.4633 58.3093 96.5137 58.3383 96.5477 58.3811C96.5818 58.424 96.5967 58.4774 96.5896 58.5303C96.581 58.5821 96.5508 58.6287 96.5054 58.6597C96.4601 58.6908 96.4033 58.7038 96.3477 58.6959C96.0829 58.6713 95.8156 58.707 95.5688 58.7999C95.3221 58.8929 95.1032 59.0403 94.9311 59.2295C94.9097 59.2508 94.8837 59.2677 94.8547 59.2788C94.8258 59.2899 94.7946 59.295 94.7633 59.2939Z" fill="#263238"/>
<path d="M100.558 61.5755L99.7635 61.1431C99.7635 61.1431 100.045 61.8653 100.558 61.5755Z" fill="#263238"/>
<path d="M100.301 94.2356L96.3524 93.5226L96.7967 97.75C96.7967 97.75 99.7582 97.6304 101.446 96.37L101.604 95.818C101.422 94.9026 101.2 94.5668 100.301 94.2356Z" fill="#FFB573"/>
<path d="M93.9784 95.3258L94.4375 97.1152C94.5046 97.3722 94.6726 97.5964 94.9083 97.7437C95.144 97.891 95.4304 97.9507 95.7109 97.911L96.8166 97.75L96.3724 93.5226L94.6892 94.093C94.4293 94.1817 94.2134 94.3563 94.0824 94.5835C93.9514 94.8107 93.9144 95.0748 93.9784 95.3258Z" fill="#FFB573"/>
<path d="M109.131 79.1199C110.331 81.2614 111.378 83.4741 112.266 85.7439C112.71 86.8801 113.13 88.0439 113.465 89.2353C113.831 90.4698 114.079 91.7321 114.206 93.0073C114.235 93.3431 114.25 93.6881 114.255 94.0377V94.1619V94.3597C114.243 94.4953 114.217 94.6293 114.176 94.7599C114.103 95.0135 113.99 95.2554 113.84 95.4775C113.612 95.8082 113.313 96.0915 112.962 96.3101C112.533 96.5762 112.059 96.7737 111.56 96.8943C111.182 96.9917 110.798 97.067 110.41 97.1197C109.064 97.2774 107.707 97.3252 106.353 97.2623C103.785 97.1519 101.229 96.8659 98.7068 96.4067C98.4336 96.3646 98.1874 96.2279 98.0174 96.0241C97.8475 95.8203 97.7662 95.5642 97.7899 95.307C97.8136 95.0498 97.9404 94.8104 98.1452 94.6365C98.3499 94.4627 98.6174 94.3671 98.8944 94.3689C101.362 94.3275 103.86 94.2677 106.264 94.0975C107.415 94.0232 108.558 93.8694 109.684 93.6375C109.914 93.588 110.14 93.5234 110.36 93.4443C110.47 93.4162 110.571 93.3659 110.657 93.2971C110.562 93.3494 110.484 93.4239 110.43 93.5133C110.364 93.6102 110.314 93.7156 110.282 93.8261C110.264 93.8881 110.251 93.9511 110.242 94.0147C110.239 94.0453 110.239 94.0761 110.242 94.1067C110.242 93.8721 110.198 93.6467 110.158 93.3891C109.726 91.2572 109.053 89.1739 108.149 87.1745C107.256 85.0999 106.234 82.9885 105.188 80.9967V80.9599C104.976 80.4786 104.966 79.9404 105.16 79.4526C105.355 78.9648 105.739 78.5631 106.237 78.3276C106.735 78.0921 107.31 78.04 107.847 78.1818C108.384 78.3235 108.845 78.6486 109.136 79.0923L109.131 79.1199Z" fill="#FFB573"/>
<path d="M106.718 76.1713C109.546 76.6589 110.805 79.0279 112.858 83.7567C112.231 86.9399 107.211 88.6143 107.211 88.6143C107.211 88.6143 104.329 83.8533 103.756 81.3279C103.184 78.8025 103.865 75.6791 106.718 76.1713Z" fill="#E0E0E0"/>
<path d="M100.741 188.6C100.717 188.539 100.673 188.487 100.613 188.452C100.554 188.418 100.484 188.404 100.415 188.411L97.0682 188.365C96.7258 188.344 96.3838 188.413 96.0811 188.563C94.5491 189.455 92.8283 190.028 91.0366 190.242C90.3258 190.343 90.6466 191.461 92.3248 191.48C95.0939 191.507 95.5973 191.314 97.9616 191.337C99.9804 191.36 99.0179 191.443 100.622 191.48C101.007 191.48 101.323 191.254 101.274 191.02L100.741 188.6Z" fill="#263238"/>
<path d="M112.286 188.6C112.262 188.539 112.217 188.488 112.158 188.453C112.099 188.419 112.029 188.404 111.96 188.411L109.23 188.365C108.888 188.343 108.545 188.411 108.243 188.563C107.256 189.203 107.394 189.943 105.144 190.242C104.433 190.343 104.783 191.461 106.461 191.48C109.23 191.507 109.063 191.337 110.188 191.337C111.313 191.337 110.622 191.443 112.231 191.48C112.616 191.48 112.927 191.254 112.868 191.02L112.286 188.6Z" fill="#263238"/>
<path d="M95.0594 80.9186C96.4612 80.9738 99.0328 82.0456 99.8571 83.191C101.022 82.064 105.573 79.4466 105.652 75.9C105.095 75.4008 104.393 75.0649 103.633 74.934C103.633 74.934 97.5619 77.671 95.0594 80.9186Z" fill="#FAFAFA"/>
<path d="M92.7889 80.7346C92.7889 80.7346 92.4088 77.8688 96.1305 75.0858C95.7553 74.8006 94.2844 75.1226 94.2844 75.1226C94.2844 75.1226 89.9359 76.866 90.0642 81.3786C90.8479 80.8416 91.8253 80.6105 92.7889 80.7346Z" fill="#FAFAFA"/>
<path d="M92.236 81.9489C91.698 82.1835 91.4857 83.8165 92.236 84.1983C92.9862 84.5801 92.9122 83.0207 93.3466 82.4871C93.7809 81.9535 93.1787 81.5395 92.236 81.9489Z" fill="#2F80ED"/>
<path d="M92.8975 82.5838C92.5125 83.0438 93.011 84.6078 93.8402 84.6032C94.6695 84.5986 93.9538 83.2232 94.1166 82.5424C94.2795 81.8616 93.5539 81.7742 92.8975 82.5838Z" fill="#2F80ED"/>
<path d="M93.011 83.7475C92.088 82.4181 92.0238 89.4239 94.2598 92.1839C94.1117 89.4653 95.6764 85.6105 93.011 83.7475Z" fill="#2F80ED"/>
<path d="M92.927 83.6877C92.5173 82.3353 90.459 88.2601 91.5992 91.1535C92.2458 88.8121 94.6595 85.9233 92.927 83.6877Z" fill="#2F80ED"/>
<path d="M99.8079 65.3659C100.023 65.2786 100.229 65.174 100.425 65.0531C100.436 65.0428 100.445 65.0307 100.451 65.0172C100.457 65.0038 100.46 64.9894 100.46 64.9749C100.46 64.9604 100.457 64.946 100.451 64.9326C100.445 64.9191 100.436 64.907 100.425 64.8967C100.404 64.8722 100.375 64.8558 100.342 64.8507C100.309 64.8456 100.275 64.8522 100.247 64.8691C99.807 65.1442 99.3063 65.3238 98.7818 65.3946C98.2573 65.4655 97.7224 65.4258 97.2166 65.2785C97.2017 65.2724 97.1856 65.2691 97.1693 65.2688C97.1531 65.2686 97.1369 65.2713 97.1218 65.2768C97.1066 65.2824 97.0928 65.2907 97.0811 65.3012C97.0694 65.3118 97.0601 65.3244 97.0537 65.3383C97.0426 65.367 97.0441 65.3986 97.058 65.4262C97.0719 65.4538 97.097 65.4751 97.1277 65.4855C98.0064 65.755 98.9609 65.7124 99.8079 65.3659Z" fill="#263238"/>
<path d="M85.4837 68.6089H60.2661V69.3725H85.4837V68.6089Z" fill="#2F80ED"/>
<path d="M84.8815 69.3726H60.8683L61.9246 69.9062H83.8252L84.8815 69.3726Z" fill="#2F80ED"/>
<path opacity="0.2" d="M84.8815 69.3726H60.8683L61.9246 69.9062H83.8252L84.8815 69.3726Z" fill="black"/>
<path d="M68.3462 48.1528C68.1986 48.1516 68.0575 48.0964 67.9532 47.9992C67.8489 47.902 67.7897 47.7704 67.7884 47.633V45.8896C67.7897 45.7521 67.8489 45.6205 67.9532 45.5233C68.0575 45.4261 68.1986 45.371 68.3462 45.3698C68.4937 45.371 68.6348 45.4261 68.7391 45.5233C68.8435 45.6205 68.9026 45.7521 68.9039 45.8896V47.633C68.9026 47.7704 68.8435 47.902 68.7391 47.9992C68.6348 48.0964 68.4937 48.1516 68.3462 48.1528Z" fill="#263238"/>
<path d="M69.2446 45.7837V45.5537C69.2446 45.3302 69.0502 45.1489 68.8103 45.1489H67.8823C67.6424 45.1489 67.4479 45.3302 67.4479 45.5537V45.7837C67.4479 46.0073 67.6424 46.1885 67.8823 46.1885H68.8103C69.0502 46.1885 69.2446 46.0073 69.2446 45.7837Z" fill="#263238"/>
<path d="M69.2396 51.9385V46.9659C69.2397 46.9118 69.2169 46.8598 69.1763 46.8211C69.1357 46.7825 69.0805 46.7601 69.0225 46.7589H67.67C67.612 46.7601 67.5567 46.7825 67.5161 46.8211C67.4755 46.8598 67.4528 46.9118 67.4528 46.9659V51.9385C67.453 52.3122 67.3682 52.6817 67.204 53.0227C67.0398 53.3636 66.7999 53.6682 66.5002 53.9165C66.2016 54.1666 65.9625 54.4722 65.7984 54.8137C65.6343 55.1552 65.5489 55.525 65.5476 55.8991V68.6549H71.14V55.8991C71.1396 55.5248 71.0545 55.1548 70.8904 54.8132C70.7263 54.4716 70.4867 54.166 70.1873 53.9165C69.889 53.6675 69.6504 53.3625 69.4871 53.0217C69.3238 52.6809 69.2395 52.3118 69.2396 51.9385Z" fill="#2F80ED"/>
<path d="M71.1399 57.408H67.4478V65.6558H71.1399V57.408Z" fill="#E0E0E0"/>
<path d="M76.3818 68.6089H75.7155C75.9374 68.6228 76.16 68.6228 76.3818 68.6089Z" fill="#2F80ED"/>
<path d="M80.4047 68.6089H79.7334C79.9569 68.6228 80.1812 68.6228 80.4047 68.6089Z" fill="#2F80ED"/>
<path opacity="0.2" d="M75.4884 58.88V60.973C75.4884 62.6382 76.5052 64.0228 77.7935 64.193V67.873C77.7935 68.4388 77.2012 68.5998 76.7422 68.6366H79.373C78.914 68.5998 78.3216 68.4388 78.3216 67.873V64.193C79.6099 64.0274 80.6267 62.6428 80.6267 60.973V58.88H75.4884Z" fill="#2F80ED"/>
<path d="M106.071 56.9112C104.097 57.6932 97.483 57.9324 94.8916 57.408C97.5718 53.8798 103.594 52.8448 106.071 56.9112Z" fill="#263238"/>
<path d="M112.296 69.5151C112.276 69.5147 112.258 69.5104 112.241 69.5025C112.224 69.4945 112.209 69.4831 112.197 69.4691C112.133 69.3863 110.677 67.3899 110.647 62.0447C110.647 59.8137 109.912 58.0197 108.673 57.1135C108.351 56.8656 107.971 56.6915 107.564 56.6052C107.157 56.519 106.733 56.5229 106.328 56.6167C106.312 56.62 106.296 56.6204 106.28 56.6178C106.264 56.6152 106.248 56.6097 106.235 56.6016C106.221 56.5934 106.209 56.5829 106.2 56.5705C106.19 56.5581 106.184 56.5441 106.18 56.5293C106.176 56.5145 106.176 56.4992 106.179 56.4842C106.182 56.4693 106.187 56.455 106.196 56.4422C106.205 56.4294 106.216 56.4183 106.23 56.4095C106.243 56.4008 106.258 56.3946 106.274 56.3913C106.714 56.2936 107.173 56.2913 107.614 56.3846C108.056 56.4779 108.469 56.6643 108.821 56.9295C110.129 57.8817 110.884 59.7447 110.899 62.0401C110.928 67.3025 112.379 69.3173 112.379 69.3357C112.389 69.348 112.396 69.362 112.399 69.3768C112.403 69.3916 112.403 69.407 112.401 69.4219C112.398 69.4369 112.392 69.4512 112.383 69.464C112.375 69.4769 112.363 69.488 112.35 69.4967C112.333 69.5063 112.315 69.5126 112.296 69.5151Z" fill="#263238"/>
<path d="M147.814 42.4351C149.192 44.1923 149.187 46.9293 148.718 48.4151C146.25 47.3709 146.635 44.3717 146.635 44.3717L147.814 42.4351Z" fill="#263238"/>
<path d="M155.194 64.1838L156.615 65.642L158.096 67.1232C159.083 68.103 160.07 69.0598 161.087 69.9798C161.581 70.4398 162.074 70.8998 162.602 71.3046C163.131 71.7094 163.59 72.1418 164.108 72.5144C164.626 72.887 165.095 73.2182 165.554 73.5034C165.9 73.7194 166.263 73.9101 166.64 74.0738L165.885 73.9634C165.661 73.9382 165.434 73.9853 165.243 74.0968C165.243 74.0968 165.362 74.0968 165.529 74.0048C165.988 73.7431 166.413 73.4346 166.798 73.0848C167.809 72.1898 168.754 71.2324 169.626 70.219C170.569 69.1656 171.487 68.0432 172.4 66.907C173.313 65.7708 174.226 64.607 175.125 63.4616L175.169 63.411C175.484 63.0241 175.934 62.7523 176.442 62.6429C176.949 62.5336 177.482 62.5935 177.947 62.8124C178.412 63.0312 178.78 63.3951 178.986 63.8407C179.193 64.2863 179.226 64.7854 179.078 65.251C178.579 66.7048 178 68.1341 177.346 69.5336C176.699 70.9136 175.984 72.2936 175.174 73.6736C174.334 75.1089 173.363 76.474 172.272 77.7538C171.621 78.5104 170.886 79.2011 170.08 79.8146C169.546 80.2171 168.961 80.557 168.338 80.8266C167.423 81.2241 166.42 81.4163 165.411 81.3878C165.225 81.3813 165.04 81.3582 164.858 81.3188L164.651 81.2774C163.569 81.0359 162.524 80.6729 161.536 80.1964C160.709 79.8038 159.91 79.3628 159.142 78.8762C157.735 77.9934 156.393 77.0237 155.124 75.9736C153.881 74.9662 152.726 73.9128 151.605 72.841C151.052 72.2982 150.5 71.7554 149.971 71.1942C149.443 70.633 148.935 70.0856 148.377 69.4462C147.755 68.6037 147.489 67.5762 147.631 66.5618C147.773 65.5475 148.313 64.6181 149.147 63.953C149.981 63.2878 151.05 62.9339 152.147 62.9596C153.245 62.9852 154.293 63.3885 155.09 64.0918L155.194 64.1838Z" fill="#E0E0E0"/>
<path d="M177.336 65.9456L181.734 66.1434L180.307 60.6234C180.307 60.6234 176.216 60.904 175.559 62.8636C175.49 63.0821 175.504 63.316 175.599 63.526L176.408 65.3338C176.485 65.5073 176.612 65.6569 176.777 65.7653C176.941 65.8736 177.135 65.9361 177.336 65.9456Z" fill="#FF8B7B"/>
<path d="M185.658 62.8682L184.809 61.0282C184.644 60.6716 184.348 60.3809 183.975 60.2074C183.602 60.034 183.175 59.9891 182.77 60.0806L180.302 60.6464L181.729 66.1664L184.69 65.0532C184.911 64.9722 185.111 64.8507 185.28 64.6959C185.448 64.5411 185.582 64.3562 185.672 64.1522C185.762 63.9483 185.808 63.7295 185.805 63.5089C185.803 63.2883 185.753 63.0704 185.658 62.8682Z" fill="#FF8B7B"/>
<path d="M144.793 142.388C140.124 123.248 137.237 100.17 137.237 100.17L156.383 99.8844C156.383 99.8844 156.116 130.985 156.156 144.012C156.205 157.559 157.212 187.372 157.212 187.372H151.403C151.403 187.372 143.905 159.132 144.793 142.388Z" fill="#263238"/>
<path d="M143.303 115.98L140.272 120.166C141.176 125.391 142.247 131.146 143.495 136.786C144.019 128.119 143.93 118.05 143.303 115.98Z" fill="black"/>
<path d="M164.962 190.026C164.962 190.026 156.961 188.269 156.359 187.087H151.916L151.946 191.47H154.69L155.11 191.066L155.806 191.47C158.027 191.47 163.93 191.388 165.327 190.923C165.355 190.757 165.336 190.587 165.272 190.43C165.208 190.272 165.101 190.133 164.962 190.026Z" fill="#263238"/>
<path d="M126.985 141.85C129.201 122.599 129.132 109.738 131.832 100.252L149.265 100.009C149.265 100.009 142.005 130.543 138.633 143.249C135.262 155.954 129.492 187.363 129.492 187.363H124.112C124.112 187.363 122.419 156.736 126.985 141.85Z" fill="#263238"/>
<path d="M130.45 104.001C130.065 106.301 128.693 119.908 127.271 124.862C138.895 129.669 156.665 127.779 157.213 124.66C157.05 118.882 156.719 104.001 156.719 104.001H130.45Z" fill="#E0E0E0"/>
<path opacity="0.1" d="M131.097 106.527C131.908 107.753 132.889 108.874 134.014 109.862C134.014 109.862 131.506 109.443 131.097 106.527Z" fill="black"/>
<path opacity="0.1" d="M154.463 109.733C155.13 108.807 155.67 107.807 156.072 106.757C156.072 106.757 156.186 109.107 154.463 109.733Z" fill="black"/>
<path opacity="0.1" d="M131.205 108.261C131.473 109.182 131.87 110.067 132.385 110.892C131.915 110.626 131.548 110.228 131.336 109.755C131.124 109.283 131.078 108.76 131.205 108.261Z" fill="black"/>
<path d="M134.507 190.026C134.507 190.026 129.517 188.269 128.944 187.087H124.502L124.413 191.47H128.051L128.48 191.066L129.166 191.47C131.388 191.47 133.436 191.388 134.848 190.923C134.881 190.759 134.867 190.589 134.808 190.432C134.748 190.274 134.644 190.134 134.507 190.026Z" fill="#263238"/>
<path d="M131.19 61.8471C137.35 61.1341 146.146 61.2031 152.044 62.1507C153.518 62.3997 154.871 63.0742 155.911 64.0788C156.95 65.0835 157.625 66.3673 157.839 67.7489C159.078 76.0519 158.012 90.5603 157.222 105.165C143.747 109.462 129.532 105.105 129.532 105.105C129.038 102.161 130.144 92.5061 130.884 87.3541C129.774 82.0319 127.429 75.9369 125.859 68.8667C125.669 68.0758 125.659 67.2564 125.829 66.4615C126 65.6667 126.348 64.9141 126.85 64.2524C127.353 63.5908 127.999 63.0348 128.746 62.6205C129.494 62.2061 130.326 61.9426 131.19 61.8471Z" fill="#263238"/>
<path opacity="0.1" d="M131.19 61.8471C137.35 61.1341 146.146 61.2031 152.044 62.1507C153.518 62.3997 154.871 63.0742 155.911 64.0788C156.95 65.0835 157.625 66.3673 157.839 67.7489C159.078 76.0519 158.012 90.5603 157.222 105.165C143.747 109.462 129.532 105.105 129.532 105.105C129.038 102.161 130.144 92.5061 130.884 87.3541C129.774 82.0319 127.429 75.9369 125.859 68.8667C125.669 68.0758 125.659 67.2564 125.829 66.4615C126 65.6667 126.348 64.9141 126.85 64.2524C127.353 63.5908 127.999 63.0348 128.746 62.6205C129.494 62.2061 130.326 61.9426 131.19 61.8471Z" fill="white"/>
<path d="M137.286 50.8853L144.295 56.2442C143.387 58.4936 143.101 60.8442 147.059 61.732C148.046 62.951 146.566 65.09 144.808 65.9226C140.652 65.0394 138.259 63.9998 136.644 61.9344C137.153 60.3152 137.962 54.2111 137.286 50.8853Z" fill="#FF8B7B"/>
<path opacity="0.2" d="M140.208 53.1208L144.295 56.2397C144.074 56.7597 143.908 57.299 143.802 57.8497C142.217 57.9555 140.016 56.4697 139.917 55.1172C139.881 54.4407 139.98 53.7639 140.208 53.1208Z" fill="black"/>
<path d="M136.279 47.2328C136.921 51.3314 137.069 53.7602 139.492 55.683C143.14 58.5764 148.431 56.2212 149.122 52.003C149.739 48.2172 148.589 42.1498 144.112 40.8802C143.119 40.5986 142.065 40.5569 141.05 40.7589C140.035 40.961 139.092 41.4002 138.308 42.0353C137.525 42.6704 136.928 43.4805 136.573 44.3897C136.218 45.2989 136.117 46.2772 136.279 47.2328Z" fill="#FF8B7B"/>
<path d="M136.24 49.1234C136.692 49.5798 137.275 49.9047 137.921 50.059C138.566 50.2132 139.246 50.1902 139.877 49.9928C138.821 48.9946 139.848 45.3422 138.792 43.8564C140.835 44.2336 148.792 45.31 149.552 42.7386C150.376 39.9786 147.084 37.7752 145.238 37.5682C145.781 38.7182 145.731 39.5508 143.708 39.1782C141.684 38.8056 133.342 37.0116 134.265 40.6548C131.58 40.6548 131.398 44.298 133.362 46.0414C134.438 46.9686 135.403 48.002 136.24 49.1234Z" fill="#263238"/>
<path d="M134.759 40.48C133.15 40.1074 133.653 38.7274 134.014 38.5848C132.508 38.9252 131.96 40.3052 133.777 40.94C135.593 41.5748 134.759 40.48 134.759 40.48Z" fill="#263238"/>
<path d="M135.04 49.749C135.19 50.1981 135.434 50.6151 135.757 50.9759C136.081 51.3367 136.478 51.6342 136.926 51.8512C138.135 52.4262 139.014 51.4786 138.9 50.2918C138.806 49.22 138.071 47.633 136.748 47.5318C136.457 47.5183 136.167 47.573 135.905 47.6909C135.642 47.8088 135.416 47.9861 135.246 48.2067C135.076 48.4272 134.968 48.684 134.932 48.9534C134.896 49.2229 134.934 49.4964 135.04 49.749Z" fill="#FF8B7B"/>
<path d="M142.454 47.38C142.484 47.7158 142.701 47.9734 142.948 47.955C143.195 47.9366 143.352 47.6422 143.323 47.311C143.293 46.9798 143.076 46.7176 142.829 46.736C142.582 46.7544 142.424 47.0442 142.454 47.38Z" fill="#263238"/>
<path d="M146.758 47.2834C146.788 47.6192 147.005 47.8768 147.252 47.8538C147.499 47.8308 147.652 47.5456 147.622 47.2098C147.592 46.874 147.375 46.621 147.128 46.6394C146.882 46.6578 146.729 46.9476 146.758 47.2834Z" fill="#263238"/>
<path d="M145.884 47.7343C146.404 48.723 147.068 49.6395 147.859 50.4575C147.271 51.0647 146.166 50.9175 146.166 50.9175L145.884 47.7343Z" fill="#FF5652"/>
<path d="M141.788 46.3128C141.754 46.3217 141.718 46.3217 141.684 46.3128C141.658 46.3037 141.634 46.2897 141.613 46.2717C141.593 46.2536 141.577 46.2318 141.566 46.2077C141.554 46.1836 141.549 46.1577 141.549 46.1315C141.549 46.1053 141.555 46.0793 141.566 46.0552C141.684 45.7599 141.876 45.495 142.126 45.2822C142.375 45.0695 142.676 44.9151 143.002 44.8316C143.058 44.8213 143.115 44.8319 143.163 44.8612C143.21 44.8906 143.243 44.9362 143.254 44.988C143.265 45.0399 143.253 45.0937 143.222 45.1377C143.19 45.1817 143.142 45.2123 143.086 45.2226C142.828 45.2908 142.59 45.4151 142.394 45.5855C142.197 45.7558 142.047 45.9673 141.956 46.2024C141.94 46.2326 141.916 46.2585 141.887 46.2778C141.858 46.2971 141.823 46.3092 141.788 46.3128Z" fill="#263238"/>
<path d="M149.256 45.7792C149.22 45.7794 149.185 45.771 149.154 45.7549C149.123 45.7388 149.097 45.7155 149.078 45.6872C148.947 45.4722 148.762 45.2895 148.54 45.1543C148.318 45.0191 148.064 44.9352 147.8 44.9098C147.772 44.9092 147.744 44.9035 147.719 44.893C147.693 44.8825 147.67 44.8674 147.651 44.8486C147.632 44.8298 147.617 44.8077 147.607 44.7835C147.597 44.7592 147.592 44.7334 147.592 44.7074C147.595 44.6545 147.62 44.6047 147.661 44.5686C147.703 44.5325 147.758 44.513 147.815 44.5142C148.149 44.5426 148.471 44.6451 148.755 44.8132C149.038 44.9812 149.274 45.2099 149.443 45.4802C149.471 45.5251 149.48 45.5783 149.467 45.6288C149.454 45.6793 149.421 45.7233 149.374 45.7516C149.34 45.7736 149.298 45.7833 149.256 45.7792Z" fill="#263238"/>
<path d="M136.644 61.9345C136.644 61.9345 143.836 72.1189 146.571 79.3041C149.266 70.8723 149.577 64.1241 147.064 61.7321C146.255 62.6843 142.997 63.9723 136.644 61.9345Z" fill="#E0E0E0"/>
<path d="M134.191 69.46L133.495 71.3L132.804 73.2136C132.345 74.4878 131.926 75.7666 131.536 77.0224C131.338 77.6526 131.166 78.2782 131.008 78.8946C130.85 79.511 130.697 80.1228 130.588 80.707C130.479 81.2912 130.396 81.857 130.341 82.363C130.313 82.7505 130.313 83.1393 130.341 83.5268L130.085 82.8552C129.877 82.4918 129.665 82.3952 129.655 82.3952C129.645 82.3952 129.724 82.4872 129.877 82.5884C130.337 82.8409 130.825 83.0446 131.333 83.1956C132.646 83.6066 133.987 83.9355 135.346 84.18C136.793 84.4468 138.283 84.64 139.789 84.87C141.294 85.1 142.844 85.261 144.335 85.4588H144.404C144.924 85.5282 145.402 85.7672 145.751 86.1332C146.101 86.4993 146.3 86.9689 146.314 87.4588C146.327 87.9487 146.154 88.4273 145.826 88.8097C145.497 89.1922 145.033 89.4538 144.517 89.5482C142.909 89.8327 141.286 90.0415 139.655 90.1738C138.026 90.3118 136.383 90.3808 134.719 90.3716C132.965 90.3686 131.215 90.2255 129.487 89.9438C128.473 89.7674 127.481 89.4945 126.526 89.1296C125.89 88.8852 125.289 88.5668 124.739 88.182C123.928 87.6235 123.269 86.8957 122.814 86.0568C122.73 85.9006 122.662 85.7373 122.612 85.5692L122.557 85.3806C122.269 84.3792 122.112 83.349 122.088 82.3124C122.064 81.448 122.099 80.583 122.192 79.7226C122.35 78.1509 122.622 76.591 123.007 75.0536C123.357 73.554 123.801 72.105 124.28 70.6744C124.527 69.9614 124.774 69.253 125.05 68.5492C125.326 67.8454 125.603 67.1692 125.943 66.4102C126.389 65.4187 127.231 64.6275 128.291 64.2039C129.351 63.7804 130.546 63.7577 131.624 64.1407C132.702 64.5237 133.577 65.2823 134.066 66.2561C134.554 67.23 134.617 68.3426 134.241 69.3588L134.191 69.46Z" fill="#E0E0E0"/>
<path d="M145.035 86.0523L149.399 86.5583L146.99 91.7609C146.99 91.7609 143.007 90.8409 142.72 88.7985C142.692 88.5727 142.75 88.3448 142.883 88.1545L144.009 86.5031C144.117 86.3455 144.271 86.2196 144.452 86.1398C144.634 86.0601 144.836 86.0297 145.035 86.0523Z" fill="#FF8B7B"/>
<path d="M152.671 90.4084L151.497 92.1012C151.269 92.4266 150.925 92.6661 150.525 92.7773C150.126 92.8885 149.697 92.8641 149.315 92.7084L146.99 91.7608L149.399 86.5582L152.119 88.1268C152.317 88.2413 152.49 88.3916 152.626 88.5689C152.761 88.7462 152.858 88.9469 152.909 89.1594C152.961 89.3719 152.966 89.5918 152.925 89.8062C152.884 90.0207 152.798 90.2254 152.671 90.4084Z" fill="#FF8B7B"/>
<path d="M136.995 60.3521C136.078 60.4877 135.237 60.9094 134.611 61.5481C136.565 63.9788 139.351 65.7151 142.508 66.47C142.281 65.7662 142.962 63.71 143.713 62.974C140.954 62.5922 136.995 60.3521 136.995 60.3521Z" fill="#FAFAFA"/>
<path d="M144.576 60.605C145.512 60.7635 146.402 61.1036 147.187 61.6032C147.187 61.6032 149.952 64.4782 146.694 66.102C146.916 65.3982 145.213 63.5214 143.688 62.974C146.442 62.5922 144.576 60.605 144.576 60.605Z" fill="#FAFAFA"/>
<path d="M143.994 64.6117C141.812 63.5215 139.112 62.3393 139.863 64.2483C140.613 66.1573 139.621 66.8197 140.598 67.4683C141.575 68.1169 143.56 66.3367 144.216 66.0883C144.873 65.8399 143.994 64.6117 143.994 64.6117Z" fill="#2F80ED"/>
<path d="M145.539 64.5978C147.202 63.5536 149.285 62.422 148.915 64.285C148.545 66.148 149.463 66.7966 148.737 67.4268C148.012 68.057 146.146 66.2952 145.554 66.0468C144.961 65.7984 145.539 64.5978 145.539 64.5978Z" fill="#2F80ED"/>
<path d="M143.698 64.4645C144.191 64.1885 145.396 63.8389 145.993 64.5887C146.59 65.3385 146.398 66.5943 145.573 66.7461C145.279 66.8016 144.974 66.7817 144.691 66.6885C144.407 66.5954 144.156 66.4325 143.964 66.2171C144.147 65.9422 144.221 65.6161 144.172 65.2957C144.124 64.9754 143.956 64.6812 143.698 64.4645Z" fill="#2F80ED"/>
<path d="M129.793 187.51L123.806 187.666L123.49 184.506L130.445 184.892L129.793 187.51Z" fill="black"/>
<path d="M157.425 187.501L150.959 187.666L150.243 184.929L157.464 184.276L157.425 187.501Z" fill="black"/>
<path d="M143.332 84.9805C140.309 84.1474 137.191 83.6457 134.043 83.4855C133.372 83.5223 133.115 97.6581 133.169 103.44C133.169 104.222 142.824 104.066 145.292 103.712C145.43 102.097 145.46 90.3119 146.102 86.6273C146.15 86.339 146.094 86.0438 145.942 85.7887C145.79 85.5336 145.551 85.3332 145.262 85.2197C144.651 84.9899 143.987 84.9076 143.332 84.9805Z" fill="white"/>
<path d="M193.871 62.353H166.467V63.0798H193.871V62.353Z" fill="#2F80ED"/>
<path d="M193.299 63.0798H167.04L168.047 63.5904H192.297L193.299 63.0798Z" fill="#2F80ED"/>
<path opacity="0.2" d="M193.299 63.0798H167.04L168.047 63.5904H192.297L193.299 63.0798Z" fill="black"/>
<path d="M181.3 52.0858C181.301 52.2943 181.235 52.4984 181.111 52.6723C180.988 52.8461 180.812 52.9819 180.605 53.0623C180.399 53.1427 180.171 53.1642 179.952 53.1241C179.732 53.084 179.53 52.984 179.372 52.8369C179.213 52.6898 179.105 52.5021 179.061 52.2976C179.017 52.0931 179.039 51.8811 179.124 51.6884C179.21 51.4956 179.355 51.3308 179.541 51.2149C179.727 51.0989 179.945 51.037 180.169 51.037C180.317 51.0364 180.464 51.0631 180.601 51.1155C180.739 51.1679 180.863 51.2451 180.968 51.3426C181.073 51.44 181.157 51.5558 181.213 51.6834C181.27 51.8109 181.3 51.9477 181.3 52.0858Z" fill="#2F80ED"/>
<path d="M192.016 58.9812C191.255 56.7848 189.807 54.85 187.86 53.4244L188.166 53.061C190.193 54.5443 191.698 56.5576 192.49 58.8432L192.016 58.9812Z" fill="#2F80ED"/>
<path d="M186.147 52.3664C185.594 52.0818 185.018 51.8373 184.424 51.635L184.592 51.2026C185.21 51.4191 185.808 51.679 186.384 51.98L186.147 52.3664Z" fill="#2F80ED"/>
<path d="M180.169 52.0858C177.196 52.0858 174.345 53.1864 172.243 55.1456C170.141 57.1047 168.96 59.7618 168.96 62.5324H191.379C191.379 59.7618 190.198 57.1047 188.095 55.1456C185.993 53.1864 183.142 52.0858 180.169 52.0858Z" fill="#2F80ED"/>
<path opacity="0.3" d="M170.505 61.5986H173.402C173.502 61.5969 173.599 61.5631 173.675 61.5027C173.752 61.4424 173.803 61.3592 173.822 61.2674C174.404 58.4062 176.235 55.913 179.147 53.7464C179.214 53.6969 179.26 53.6287 179.281 53.5521C179.302 53.4756 179.295 53.3948 179.262 53.322C179.23 53.2492 179.172 53.1884 179.099 53.1488C179.026 53.1092 178.94 53.0929 178.856 53.1024C176.654 53.3733 174.606 54.3048 173.022 55.7563C171.438 57.2077 170.403 59.1002 170.075 61.1478C170.068 61.2044 170.073 61.2619 170.091 61.3165C170.109 61.3711 170.139 61.4214 170.18 61.4641C170.221 61.5068 170.271 61.5409 170.327 61.5641C170.383 61.5873 170.443 61.599 170.505 61.5986Z" fill="white"/>
<path d="M144.507 52.1134C144.738 52.1228 144.969 52.112 145.198 52.0812C145.229 52.0756 145.256 52.059 145.274 52.0348C145.291 52.0107 145.298 51.9811 145.292 51.9524C145.284 51.9224 145.264 51.8962 145.237 51.8784C145.21 51.8607 145.177 51.8527 145.144 51.8558C144.628 51.9273 144.102 51.889 143.605 51.7441C143.107 51.5991 142.651 51.3511 142.271 51.0186C142.26 51.0076 142.247 50.9988 142.232 50.9929C142.217 50.9869 142.201 50.9838 142.185 50.9838C142.169 50.9838 142.153 50.9869 142.138 50.9929C142.123 50.9988 142.11 51.0076 142.098 51.0186C142.077 51.0406 142.065 51.0693 142.065 51.0991C142.065 51.1289 142.077 51.1576 142.098 51.1796C142.751 51.7555 143.609 52.0878 144.507 52.1134Z" fill="#263238"/>
</svg>
