<svg width="248" height="230" viewBox="0 0 248 230" fill="none" xmlns="http://www.w3.org/2000/svg">
<path d="M124 196.678C71.1451 196.678 28.2977 194.346 28.2977 191.47C28.2977 188.595 71.1451 186.263 124 186.263C176.855 186.263 219.702 188.595 219.702 191.47C219.702 194.346 176.855 196.678 124 196.678Z" fill="#F5F5F5"/>
<path d="M178.428 191.47H180.403" stroke="#2F80ED" stroke-linecap="round" stroke-linejoin="round"/>
<path d="M184.134 191.47H234.555" stroke="#2F80ED" stroke-linecap="round" stroke-linejoin="round" stroke-dasharray="7.57 7.57"/>
<path d="M236.42 191.47H238.395" stroke="#2F80ED" stroke-linecap="round" stroke-linejoin="round"/>
<path d="M60.9405 81.3607L117.893 82.2408L117.211 120.558L60.2588 119.678L60.9405 81.3607Z" fill="#2F80ED"/>
<path opacity="0.3" d="M83.5163 81.7048L117.949 82.2369L117.268 120.554L82.8345 120.022L83.5163 81.7048Z" fill="white"/>
<path opacity="0.3" d="M78.3275 84.2867L88.2437 84.4716L88.1884 87.0476L78.2722 86.8627L78.3275 84.2867Z" fill="white"/>
<path opacity="0.3" d="M78.033 114.083L87.9479 114.236L87.902 116.812L77.9872 116.659L78.033 114.083Z" fill="white"/>
<path d="M71.4227 105.887C68.2087 105.887 65.6032 103.14 65.6032 99.751C65.6032 96.362 68.2087 93.6146 71.4227 93.6146C74.6367 93.6146 77.2421 96.362 77.2421 99.751C77.2421 103.14 74.6367 105.887 71.4227 105.887Z" stroke="white" stroke-miterlimit="10"/>
<path d="M71.1808 94.5485V95.5789" stroke="white" stroke-linecap="round" stroke-linejoin="round"/>
<path d="M70.9291 103.988V105.018" stroke="white" stroke-linecap="round" stroke-linejoin="round"/>
<path d="M76.3289 99.5486H75.2183" stroke="white" stroke-linecap="round" stroke-linejoin="round"/>
<path d="M67.4146 99.5532H66.3041" stroke="white" stroke-linecap="round" stroke-linejoin="round"/>
<path d="M71.1857 99.5486L71.1812 96.3746" stroke="white" stroke-width="0.5" stroke-linecap="round" stroke-linejoin="round"/>
<path d="M70.9686 99.7556L68.5598 102" stroke="white" stroke-width="0.5" stroke-linecap="round" stroke-linejoin="round"/>
<path d="M70.6477 99.5532C70.6477 99.6523 70.6793 99.7493 70.7384 99.8317C70.7975 99.9142 70.8815 99.9785 70.9798 100.016C71.0781 100.054 71.1863 100.064 71.2907 100.045C71.395 100.026 71.4909 99.9779 71.5661 99.9077C71.6414 99.8376 71.6926 99.7483 71.7134 99.651C71.7341 99.5537 71.7235 99.4529 71.6827 99.3613C71.642 99.2697 71.5731 99.1914 71.4846 99.1363C71.3961 99.0812 71.2921 99.0518 71.1857 99.0518C71.1149 99.0512 71.0446 99.0637 70.979 99.0887C70.9135 99.1137 70.8539 99.1506 70.8038 99.1973C70.7537 99.2439 70.7141 99.2995 70.6873 99.3606C70.6605 99.4217 70.6471 99.4872 70.6477 99.5532Z" fill="white"/>
<path opacity="0.3" d="M71.4226 107.511C67.1673 107.511 63.7176 104.037 63.7176 99.751C63.7176 95.4652 67.1673 91.9908 71.4226 91.9908C75.6779 91.9908 79.1276 95.4652 79.1276 99.751C79.1276 104.037 75.6779 107.511 71.4226 107.511Z" fill="white"/>
<path d="M135.412 167.049C134.553 167.661 117.312 165.931 121.769 137.425C121.769 137.425 113.59 139.362 112.711 139.233C112.711 139.233 100.712 156.377 109.449 164.869C118.185 173.36 131.206 173.88 131.206 173.88L135.412 167.049Z" fill="#2F80ED"/>
<path opacity="0.3" d="M135.412 167.049C134.553 167.661 117.312 165.931 121.769 137.425C121.769 137.425 113.59 139.362 112.711 139.233C112.711 139.233 100.712 156.377 109.449 164.869C118.185 173.36 131.206 173.88 131.206 173.88L135.412 167.049Z" fill="black"/>
<path d="M116.305 141.836C116.26 141.836 121.122 141.924 122.751 140.038C124.38 138.152 125.481 134.78 122.519 132.48C119.558 130.18 102.168 120.244 93.9797 119.462C85.791 118.68 77.0248 123.602 77.0248 123.602L87.7456 130.99L110.831 136.197L116.305 141.836Z" fill="#263238"/>
<path d="M132.026 162.559L131.577 166.681L126.266 166.262L127.065 162.026L132.026 162.559Z" fill="#FFC3BD"/>
<path d="M133.057 166.382L125.352 166.281L124.804 169.906C124.804 169.906 132.021 169.998 134.987 169.63C137.954 169.262 137.49 167.822 137.49 167.822C137.49 167.822 134.015 167.9 133.057 166.382Z" fill="#263238"/>
<path d="M65.8166 176.815C64.6661 166.278 71.4921 157 81.0628 156.093C90.6336 155.185 99.3248 162.991 100.475 173.528C101.626 184.065 94.7997 193.343 85.229 194.25C75.6583 195.158 66.967 187.352 65.8166 176.815Z" fill="#263238"/>
<path d="M95.2532 116.513C95.2532 116.513 94.4536 133.612 105.125 134.099C115.796 134.587 127.263 133.497 127.263 133.497L123.901 164.22L133.906 164.795C133.906 164.795 141.088 138.731 142.218 132.181C143.349 125.631 142.366 120.998 134.948 118.091C127.529 115.184 95.2532 116.513 95.2532 116.513Z" fill="#2F80ED"/>
<path d="M154.973 170.761L141.68 134.78L123.911 116.5C123.911 116.5 139.42 116.555 146.873 120.548C154.326 124.54 154.603 129.338 155.97 135.047C157.337 140.755 162.821 167.776 162.821 167.776L154.973 170.761Z" fill="#2F80ED"/>
<path opacity="0.7" d="M95.2532 116.513C95.2532 116.513 111.769 115.828 123.881 116.513C123.881 116.513 139.39 116.569 146.843 120.561C154.297 124.554 154.603 129.338 155.97 135.047C157.337 140.755 162.821 167.776 162.821 167.776L154.973 170.761L141.68 134.78C139.444 144.753 133.906 164.777 133.906 164.777L123.901 164.22L127.268 133.515C127.268 133.515 115.806 134.605 105.13 134.118C94.4536 133.63 95.2532 116.513 95.2532 116.513Z" fill="black"/>
<path d="M122.519 88.78L128.655 89.4746C128.655 89.4746 129.721 99.9856 130.713 102.028C130.713 102.028 149.583 104.443 157.313 104.236L161.237 106.72L161.375 111.039L157.53 111.145L156.291 108.408C156.291 108.408 153.694 108.302 153.092 106.941C153.092 106.941 133.043 111.453 125.659 106.301C125.649 106.306 121.196 100.211 122.519 88.78Z" fill="#FFC3BD"/>
<path d="M104.937 60.6326C104.937 60.6326 103.017 62.9326 103.748 64.9244C103.95 65.4924 104.305 66.0024 104.779 66.4053C105.254 66.8082 105.832 67.0902 106.458 67.2244C106.458 67.2244 106.818 70.4122 108.837 70.5042C110.856 70.5962 110.179 63.48 110.179 63.48L104.937 60.6326Z" fill="#263238"/>
<path d="M120.481 116.592L121.828 96.0434L130.19 90.8638C130.19 90.8638 127.455 81.88 122.223 80.3574C116.991 78.8348 105.579 75.3434 98.659 77.0776C91.7389 78.8118 92.5336 86.4202 93.7231 92.0644L95.0558 92.3588C95.0558 92.3588 95.2631 114.6 95.273 116.513L120.481 116.592Z" fill="#263238"/>
<path d="M105.436 78.3473C108.175 80.8175 113.763 82.2895 115.308 81.0613C116.853 79.8331 114.903 78.7061 113.452 77.3169C112.667 76.5533 112.692 75.1227 112.874 73.9819C112.971 73.4071 113.112 72.8397 113.299 72.2845C118.427 72.0223 120.555 69.7867 120.767 65.8445C120.979 61.9023 119.064 57.3253 119.064 57.3253L115.441 54.4457C115.441 54.4457 110.505 55.1357 106.556 57.6657C104.207 59.1561 104.903 62.0909 105.875 64.2575C106.287 65.1797 106.783 66.0677 107.356 66.9117C107.909 72.3075 105.436 78.3473 105.436 78.3473Z" fill="#FFC3BD"/>
<path d="M117.914 66.9301C117.914 66.9301 115.94 67.0175 115.076 65.8767" stroke="#263238" stroke-linecap="round" stroke-linejoin="round"/>
<path d="M114.77 62.2748C114.77 62.6244 114.997 62.9004 115.263 62.8958C115.53 62.8912 115.722 62.6014 115.713 62.2518C115.703 61.9022 115.486 61.6262 115.219 61.6308C114.952 61.6354 114.755 61.9252 114.77 62.2748Z" fill="#263238"/>
<path d="M119.271 62.3853C119.271 62.7349 119.498 63.0109 119.765 63.0063C120.031 63.0017 120.224 62.7119 120.214 62.3623C120.204 62.0127 119.987 61.7367 119.721 61.7413C119.454 61.7459 119.257 62.0403 119.271 62.3853Z" fill="#263238"/>
<path d="M117.707 65.2418L117.909 62.422L119.355 65.0992C119.129 65.278 118.85 65.3876 118.555 65.4131C118.26 65.4386 117.964 65.3788 117.707 65.2418Z" fill="#ED847E"/>
<path d="M115.007 60.0668C114.628 59.9699 114.225 60.0013 113.869 60.1554C113.513 60.3096 113.227 60.5765 113.062 60.9086" stroke="#263238" stroke-linecap="round" stroke-linejoin="round"/>
<path d="M120.663 60.5866C120.663 60.5866 119.755 59.6666 118.689 59.9012" stroke="#263238" stroke-linecap="round" stroke-linejoin="round"/>
<path d="M105.841 64.2574C111.487 64.446 112.188 58.4798 112.188 58.4798C114.982 59.8598 119.044 57.3298 119.044 57.3298L115.421 54.441C115.421 54.441 110.486 55.1402 106.537 57.661C104.172 59.156 104.868 62.1 105.841 64.2574Z" fill="#263238"/>
<path d="M120.861 59.0778C120.861 59.0778 123.783 57.2654 122.494 55.959C121.206 54.6526 113.314 57.1366 107.415 60.1818C107.415 60.1818 120.925 51.7592 124.597 54.4226C127.633 56.626 120.9 59.685 121.103 59.6804L120.861 59.0778Z" fill="#2F80ED"/>
<path d="M104.38 58.4614C104.388 59.4153 104.582 60.3598 104.952 61.249L118.22 55.269C117.67 54.6775 117.012 54.1821 116.275 53.8062C115.49 53.3876 114.636 53.0924 113.748 52.9322C112.806 52.7644 111.842 52.7334 110.89 52.8402C106.038 53.36 104.355 56.8376 104.38 58.4614Z" fill="#2F80ED"/>
<path d="M163.137 119.356C163.137 119.356 178.122 138.676 165.782 168.415" stroke="#263238" stroke-linecap="round" stroke-linejoin="round"/>
<path d="M143.359 129.393C143.359 129.393 143.359 129.43 143.359 129.504C143.359 129.577 143.359 129.619 143.359 129.702V129.748C143.537 131.608 143.867 133.454 144.346 135.268C145.027 137.949 145.93 140.502 146.676 142.554C149.835 151.271 149.469 160.664 149.469 160.664C150.516 159.45 152.431 158.585 154.825 157.978C163.542 155.747 178.339 156.943 178.339 156.943C181.242 147.453 180.205 132.6 177.318 124.283C174.43 115.966 166.424 117.843 166.424 117.843C166.424 117.843 157.974 118.073 156.913 117.967C154.97 117.748 153.005 117.785 151.073 118.077C144.548 119.191 142.979 123.998 143.359 129.393Z" fill="#2F80ED"/>
<path d="M78.2984 165.6C93.1061 178.057 121.69 179.363 142.959 177.983L154.874 158.005L159.701 149.914L144.193 130.433L143.373 129.407C143.373 129.407 143.373 129.444 143.373 129.518C143.373 129.591 143.373 129.633 143.373 129.715V129.761C143.586 133.234 144.958 161.106 133.995 167.941L133.906 168.001C132.423 168.895 130.702 169.385 128.936 169.418C108.822 169.961 109.385 145.498 114.498 140.259L79.5965 133.722C79.5965 133.722 72.706 149.891 78.2984 165.6Z" fill="#2F80ED"/>
<path d="M117.119 134.955C117.119 134.955 120.392 137.485 118.704 140.88C117.016 144.274 100.742 137.683 94.3352 136.482C87.9283 135.281 80.5146 134.108 77.326 133.497C74.1374 132.885 74.4138 124.361 77.02 123.607C79.6262 122.852 105.155 127.057 109.39 129.366C112.186 130.948 114.779 132.824 117.119 134.955Z" fill="#263238"/>
<path d="M108.926 66.3642C109.237 66.0517 109.426 65.6501 109.461 65.2249C109.496 64.7996 109.375 64.3759 109.118 64.0228C108.328 62.9188 106.734 61.1662 105.204 62.4772C103.062 64.3172 106.719 67.6614 108.235 66.8518C108.488 66.7204 108.721 66.5563 108.926 66.3642Z" fill="#FFC3BD"/>
<path opacity="0.2" d="M120.861 59.0778C120.861 59.0778 123.783 57.2654 122.494 55.959C121.922 55.3794 120.209 55.499 117.894 56.1154C116.406 56.4889 114.947 56.9608 113.531 57.5276C111.497 58.351 109.335 59.4044 107.415 60.1818C107.415 60.1818 120.925 51.7592 124.597 54.4226C127.633 56.626 121.32 59.4826 121.098 59.6758L120.989 59.3032L120.861 59.0778Z" fill="black"/>
<path d="M119.474 58.2913C119.474 58.2913 122.435 58.7513 120.392 61.7229L119.474 58.2913Z" fill="#263238"/>
<path d="M116.636 56.4788C116.636 56.4788 121.103 55.016 122.346 55.844C123.59 56.672 122.287 58.2498 120.866 59.064L119.725 59.202L119.054 57.316L117.317 57.1182L116.636 56.4788Z" fill="#263238"/>
<path opacity="0.3" d="M110.55 54.2294L111.621 55.706L116.275 53.82C115.49 53.4015 114.636 53.1062 113.748 52.946L110.55 54.2294Z" fill="white"/>
<path opacity="0.1" d="M111.586 71.8796C111.894 72.6431 112.336 73.3535 112.894 73.9818C112.99 73.407 113.132 72.8397 113.319 72.2844C112.72 72.2455 112.134 72.1084 111.586 71.8796Z" fill="black"/>
<path d="M155.837 112.332C156.034 115.52 157.515 118.128 159.331 118.772C159.645 118.885 159.982 118.933 160.318 118.915C162.559 118.795 164.188 115.662 163.961 111.923C163.734 108.183 161.73 105.248 159.489 105.368C158.576 105.414 157.771 105.961 157.145 106.84C156.222 108.1 155.703 110.115 155.837 112.332Z" fill="#F5F5F5"/>
<path d="M155.837 112.332C156.034 115.52 157.515 118.128 159.331 118.772C161.404 118.662 162.91 115.768 162.698 112.332C162.485 108.896 160.639 106.168 158.566 106.278C158.032 106.316 157.526 106.518 157.13 106.853C156.222 108.1 155.703 110.115 155.837 112.332Z" fill="white"/>
<path d="M75.8402 157.518C79.6557 155.02 94.419 152.568 94.419 152.568C103.388 152.568 111.26 160.089 112.346 170.076C113.235 178.199 109.385 185.573 103.18 188.936C103.18 188.936 102.662 189.138 101.793 189.456C98.5059 190.665 90.1642 193.596 85.2333 194.24" fill="#263238"/>
<path opacity="0.3" d="M65.8166 176.815C64.6661 166.278 71.4921 157 81.0628 156.093C90.6336 155.185 99.3248 162.991 100.475 173.528C101.626 184.065 94.7997 193.343 85.229 194.25C75.6583 195.158 66.967 187.352 65.8166 176.815Z" fill="black"/>
<path d="M142.55 176.202C141.399 165.665 148.225 156.387 157.796 155.479C167.367 154.572 176.058 162.378 177.209 172.915C178.359 183.452 171.533 192.73 161.962 193.637C152.392 194.545 143.7 186.739 142.55 176.202Z" fill="#263238"/>
<path d="M149.232 158.994L158.058 193.527C159.345 193.721 160.655 193.757 161.952 193.632H162.051C163.744 193.228 162.989 193.665 164.687 193.14C169.006 191.811 175.279 189.46 175.279 189.46C181.928 186.447 185.684 179.119 184.771 170.747C183.665 160.604 175.857 153.028 166.666 153.649C166.666 153.649 162.303 154.399 157.811 155.489C155.837 155.949 153.862 156.497 152.238 157.067C151.163 157.604 150.155 158.251 149.232 158.994Z" fill="#263238"/>
<path opacity="0.3" d="M142.549 176.18C143.536 185.265 150.136 192.317 158.068 193.508C159.355 193.703 160.664 193.738 161.962 193.614H162.061C163.868 193.432 165.624 192.944 167.243 192.174C173.912 189.023 178.132 181.369 177.209 172.905C176.059 162.375 167.387 154.578 157.821 155.471H157.796C155.854 155.654 153.969 156.19 152.248 157.049C151.173 157.587 150.165 158.235 149.242 158.981C144.518 162.808 141.769 169.229 142.549 176.18Z" fill="black"/>
<path d="M144.953 164.082C145.242 163.652 145.573 163.247 145.94 162.872C148.146 160.066 153.191 159.017 156.493 159.266C159.024 159.496 161.455 160.309 163.566 161.63C165.975 163.084 167.698 165.31 170.087 166.837C174.618 169.754 181.493 169.671 186.044 166.667C186.301 166.497 186.545 166.311 186.775 166.111C187.239 165.661 187.548 165.092 187.663 164.478C187.837 163.71 187.774 162.913 187.481 162.178C186.494 159.592 183.201 157.32 181.123 155.935C176.91 153.165 171.955 151.54 166.809 151.239C152.135 150.296 145.876 161.975 144.953 164.082Z" fill="#2F80ED"/>
<path opacity="0.3" d="M145.97 164.45C149.124 160.209 153.172 159.017 156.474 159.266C159.005 159.496 161.436 160.308 163.547 161.63C165.956 163.084 167.678 165.31 170.067 166.837C174.598 169.754 181.474 169.671 186.025 166.667C186.282 166.497 186.526 166.311 186.756 166.111C187.219 165.661 187.529 165.092 187.644 164.478C187.818 163.71 187.755 162.913 187.461 162.178C185.936 163.82 181.494 167.776 175.477 165.858C167.974 163.443 166.143 156.267 158.122 156.331C151.75 156.4 147.826 161 145.97 164.45Z" fill="black"/>
<g opacity="0.3">
<path opacity="0.3" d="M178.976 154.67C176.836 153.253 174.428 152.224 171.878 151.639C169.326 151.034 166.684 150.832 164.06 151.041C161.44 151.276 158.875 151.884 156.454 152.844L155.555 153.212L154.677 153.622C154.084 153.879 153.527 154.201 152.954 154.496C152.381 154.79 151.853 155.153 151.305 155.48C150.758 155.807 150.244 156.188 149.721 156.552C151.874 155.208 154.172 154.078 156.577 153.18C158.978 152.282 161.507 151.72 164.084 151.51C166.656 151.281 169.251 151.436 171.77 151.97C173.034 152.231 174.274 152.588 175.477 153.037C176.697 153.475 177.869 154.022 178.976 154.67Z" fill="black"/>
</g>
<g opacity="0.3">
<path opacity="0.3" d="M162.994 151.381C163.609 149.463 163.979 147.484 164.094 145.484C164.257 143.492 164.292 141.491 164.247 139.504C164.203 137.517 164.055 135.511 163.857 133.524L163.497 130.553C163.339 129.564 163.201 128.575 163.003 127.59L163.453 133.57L163.63 136.551C163.66 137.545 163.724 138.538 163.729 139.532C163.813 141.519 163.773 143.506 163.694 145.512C163.66 146.505 163.576 147.494 163.467 148.483C163.381 149.458 163.222 150.427 162.994 151.381Z" fill="black"/>
</g>
<path opacity="0.3" d="M134.02 167.9C144.326 161.722 144.736 145.783 144.385 135.268C144.321 133.46 144.242 131.818 144.183 130.405C144.075 128.992 144.075 127.573 144.183 126.16C145.224 118.938 151.148 118.068 151.148 118.068H151.123C144.563 119.191 142.993 123.998 143.373 129.393C143.373 129.393 143.373 129.43 143.373 129.504C143.373 129.577 143.373 129.619 143.373 129.702V129.748C143.596 133.221 144.968 161.092 134.02 167.9Z" fill="black"/>
<path opacity="0.2" d="M134.859 113.464C135.723 114.305 146.893 112.148 148.842 113.114C149.667 113.519 150.027 114.954 150.856 116.527C153.186 119.977 156.463 120.52 156.666 120.548C152.757 117.788 151.666 111.145 153.606 106.945C155.545 102.746 162.49 103.836 162.885 103.96C161.701 103.475 160.427 103.208 159.134 103.173C155.378 102.989 150.797 103.974 149.514 106.191C146.908 110.713 135.733 109.696 134.706 110.883C133.679 112.07 133.995 112.622 134.859 113.464Z" fill="black"/>
<path d="M143.605 109.448C144.284 110.616 144.555 111.952 144.38 113.27L134.918 114.264C134.434 113.742 134.077 113.13 133.87 112.468C133.663 111.806 133.611 111.11 133.719 110.428C133.719 110.428 143.092 109.549 143.605 109.448Z" fill="#263238"/>
<path d="M172.337 109.121C172.337 109.121 173.28 107.254 172.15 106.071C174.677 105.86 176.242 105.611 177.871 105.391C178.112 106.076 178.231 106.734 177.377 107.778C176.523 108.822 172.337 109.121 172.337 109.121Z" fill="#263238"/>
<path d="M177.594 120.81C179.233 123.298 180.635 127.282 180.758 133.644" stroke="#2F80ED" stroke-linecap="round" stroke-linejoin="round"/>
<path d="M172.199 116.707C173.391 116.964 174.487 117.516 175.373 118.303" stroke="#2F80ED" stroke-linecap="round" stroke-linejoin="round"/>
<path d="M98.59 92.7268L104.819 93.4352C104.819 93.4352 105.905 104.103 106.912 106.177C106.912 106.177 126.068 108.634 133.921 108.417L137.905 110.938L138.043 115.327L134.138 115.432L132.88 112.672C132.88 112.672 130.244 112.567 129.637 111.182C129.637 111.182 109.281 115.782 101.784 110.538C101.788 110.52 97.2622 104.333 98.59 92.7268Z" fill="#FFC3BD"/>
<path opacity="0.2" d="M149.311 174.8C149.489 180.587 153.556 185.168 158.398 185.04C159.049 185.021 159.694 184.918 160.313 184.731C164.193 183.581 166.987 179.317 166.834 174.326C166.681 169.496 163.823 165.503 160.067 164.395C159.316 164.17 158.53 164.066 157.742 164.087C152.9 164.22 149.129 169.032 149.311 174.8Z" fill="#FAFAFA"/>
<path d="M153.768 174.8C153.921 179.74 156.73 183.802 160.313 184.745C164.193 183.595 166.987 179.331 166.834 174.34C166.681 169.51 163.823 165.517 160.067 164.409C156.335 165.352 153.615 169.685 153.768 174.8Z" fill="#263238"/>
<path opacity="0.2" d="M73.2589 175.26C73.4415 181.047 77.5087 185.633 82.3459 185.5C82.9969 185.484 83.642 185.38 84.261 185.191C88.1456 184.041 90.9393 179.782 90.7813 174.786C90.6333 169.961 87.7754 165.963 84.0191 164.855C83.2686 164.63 82.4824 164.526 81.6943 164.547C76.8522 164.68 73.0812 169.482 73.2589 175.26Z" fill="#FAFAFA"/>
<path d="M77.716 175.26C77.874 180.196 80.6775 184.258 84.261 185.201C88.1456 184.051 90.9393 179.791 90.7813 174.795C90.6333 169.97 87.7754 165.973 84.0191 164.864C80.2827 165.807 77.5581 170.14 77.716 175.26Z" fill="#263238"/>
<path d="M65.6278 160.016C65.5439 165.706 74.8383 169.473 90.3913 171.847C94.5837 172.534 98.8681 172.58 103.077 171.985C109.987 170.922 113.363 168.199 113.363 168.199C113.363 168.199 111.606 148.534 94.2166 146.041C82.3705 144.348 73.4562 148.801 68.9349 153.599C66.8075 155.853 65.6525 158.194 65.6278 160.016Z" fill="#2F80ED"/>
<path opacity="0.3" d="M65.6278 160.016C65.5439 165.706 74.8382 169.473 90.3913 171.847C94.5837 172.534 98.8681 172.58 103.077 171.985C102.331 166.644 98.9847 152.637 84.4386 151.184C77.8393 150.521 72.7454 151.763 68.9349 153.599C66.8075 155.853 65.6525 158.194 65.6278 160.016Z" fill="black"/>
<g opacity="0.3">
<path opacity="0.3" d="M112.356 168.286C112.036 165.61 111.351 162.982 110.318 160.466C109.301 157.925 107.898 155.533 106.152 153.364C105.269 152.286 104.277 151.289 103.19 150.388C102.113 149.472 100.925 148.675 99.6511 148.014C97.1159 146.682 94.3066 145.865 91.4081 145.618C92.8284 145.839 94.2255 146.175 95.5839 146.62C96.27 146.814 96.9166 147.113 97.5583 147.366C98.2021 147.653 98.8298 147.971 99.4389 148.318C100.061 148.649 100.633 149.049 101.221 149.422C101.808 149.794 102.351 150.236 102.869 150.701C103.923 151.593 104.884 152.578 105.737 153.64C107.471 155.767 108.884 158.106 109.938 160.591C110.484 161.828 110.956 163.094 111.349 164.381C111.768 165.663 112.104 166.967 112.356 168.286Z" fill="black"/>
</g>
<path d="M135.693 161.791L134.667 165.039L123.901 164.202L123.758 159.661L135.693 161.791Z" fill="#2F80ED"/>
<path d="M71.6003 139.642L47.9129 138.745" stroke="#2F80ED" stroke-linecap="round" stroke-linejoin="round"/>
<path d="M40.0846 134.725L36.5653 134.591" stroke="#2F80ED" stroke-linecap="round" stroke-linejoin="round"/>
<path d="M60.2477 135.488L42.7845 134.826" stroke="#2F80ED" stroke-linecap="round" stroke-linejoin="round"/>
<path d="M48.0264 146.915L33.3915 146.363" stroke="#2F80ED" stroke-linecap="round" stroke-linejoin="round"/>
<path d="M57.0739 147.26L50.6967 147.016" stroke="#2F80ED" stroke-linecap="round" stroke-linejoin="round"/>
</svg>
