<svg width="27" height="31" viewBox="0 0 27 31" fill="none" xmlns="http://www.w3.org/2000/svg">
<path d="M21.2989 12.3687C21.3566 12.3689 21.4137 12.3575 21.4671 12.3354C21.5204 12.3133 21.5688 12.2808 21.6094 12.2398L22.527 11.3228C22.6094 11.2404 22.6557 11.1286 22.6557 11.012C22.6557 10.8954 22.6094 10.7836 22.527 10.7011C22.4445 10.6187 22.3327 10.5724 22.2161 10.5724C22.0996 10.5724 21.9877 10.6187 21.9053 10.7011L20.9877 11.6199C20.9264 11.6815 20.8847 11.7598 20.8678 11.8451C20.8509 11.9303 20.8597 12.0187 20.893 12.0989C20.9263 12.1792 20.9826 12.2478 21.0548 12.2962C21.127 12.3445 21.212 12.3703 21.2989 12.3705V12.3687ZM16.9043 9.73199C16.962 9.73213 17.0192 9.72081 17.0725 9.69868C17.1258 9.67656 17.1742 9.64406 17.2149 9.60309L18.1324 8.68609C18.2149 8.60365 18.2612 8.49184 18.2612 8.37525C18.2612 8.25867 18.2149 8.14685 18.1324 8.06441C18.05 7.98197 17.9382 7.93566 17.8216 7.93566C17.705 7.93566 17.5932 7.98197 17.5108 8.06441L16.5932 8.98316C16.5319 9.04473 16.4901 9.12309 16.4733 9.20834C16.4564 9.29359 16.4652 9.38193 16.4985 9.46221C16.5317 9.54249 16.588 9.61112 16.6603 9.65945C16.7325 9.70777 16.8174 9.73363 16.9043 9.73375V9.73199ZM26.3907 14.1546C26.3658 13.9211 26.2713 13.7005 26.1195 13.5213C25.9677 13.3421 25.7655 13.2127 25.5393 13.1498C25.325 12.5959 25.1565 12.0255 25.0354 11.4441C24.963 11.0973 24.908 10.747 24.8707 10.3947C24.8198 9.9482 24.7823 9.62594 24.5192 9.23512C24.1324 8.66207 23.6526 8.53551 23.1891 8.4148C22.8246 8.31871 22.4485 8.2191 21.9762 7.90094C21.4313 7.53414 21.1705 7.15328 20.9496 6.78121L23.652 2.09957C23.8237 1.7905 23.8672 1.42632 23.7729 1.08553C23.6786 0.744752 23.4541 0.454678 23.1479 0.277861C22.8417 0.101044 22.4783 0.0516502 22.136 0.14033C21.7937 0.229009 21.5 0.448658 21.3182 0.751912L18.5555 5.53492C18.4114 5.58062 18.2766 5.63805 18.1453 5.69488C17.8213 5.83258 17.4867 5.97554 16.9301 5.98785C16.0237 6.01012 15.4483 5.63219 14.8377 5.23199C14.1932 4.80953 13.5252 4.37301 12.559 4.5441C11.8289 4.67301 11.5043 5.06148 11.2213 5.40426C10.9612 5.71656 10.7156 6.01187 10.1022 6.24566C9.74315 6.38352 9.36175 6.45384 8.97717 6.45308L5.68245 0.75074C5.59557 0.594419 5.47845 0.456953 5.33791 0.346353C5.19737 0.235753 5.03622 0.154232 4.86386 0.106541C4.6915 0.0588495 4.51136 0.0459421 4.33396 0.0685708C4.15656 0.0911994 3.98544 0.148912 3.83056 0.238344C3.67569 0.327776 3.54017 0.447139 3.43189 0.589476C3.32361 0.731814 3.24475 0.894279 3.1999 1.0674C3.15504 1.24053 3.1451 1.42085 3.17064 1.59785C3.19618 1.77486 3.25669 1.94501 3.34866 2.0984L5.95374 6.61012C5.89405 6.64934 5.83654 6.69179 5.78147 6.73726C5.37131 7.07594 5.25823 7.41226 5.16038 7.70933C5.0719 7.97476 4.99631 8.20445 4.67874 8.52027C4.25335 8.94391 3.83088 9.05875 3.38381 9.18004C2.97014 9.29254 2.50081 9.41969 2.06604 9.79879C1.25042 10.5084 0.881275 11.7324 0.964478 13.4316C0.764024 13.6228 0.638156 13.8791 0.6094 14.1546C0.350945 16.5599 0.798359 18.9883 1.89702 21.1435C2.99568 23.2987 4.69806 25.0874 6.79631 26.2912V27.6623C6.79709 28.3024 7.05174 28.9162 7.50441 29.3688C7.95707 29.8215 8.5708 30.0761 9.21096 30.0769H17.7891C18.4293 30.0761 19.043 29.8215 19.4956 29.3688C19.9483 28.9162 20.203 28.3024 20.2037 27.6623V26.2912C21.9824 25.271 23.4818 23.8274 24.5686 22.0887C25.6555 20.3499 26.2962 18.3697 26.434 16.3238C26.4359 16.3078 26.4369 16.2918 26.4369 16.2757C26.4817 15.5687 26.4663 14.8591 26.3907 14.1546ZM22.0787 1.19019C22.1095 1.13686 22.1505 1.09011 22.1993 1.05262C22.2482 1.01513 22.3039 0.987623 22.3634 0.97168C22.4229 0.955737 22.4849 0.951667 22.5459 0.959703C22.607 0.967739 22.6658 0.987723 22.7192 1.01851C22.8268 1.08075 22.9053 1.18319 22.9373 1.3033C22.9694 1.4234 22.9525 1.55133 22.8903 1.65894L20.4035 5.96734C20.1882 5.73729 19.9095 5.57639 19.6026 5.50504H19.5891L22.0787 1.19019ZM4.10979 1.65894C4.04756 1.55133 4.03062 1.4234 4.06271 1.3033C4.09479 1.18319 4.17327 1.08075 4.28088 1.01851C4.33421 0.987723 4.39307 0.967739 4.45412 0.959703C4.51516 0.951667 4.57719 0.955737 4.63667 0.97168C4.69614 0.987623 4.75189 1.01513 4.80073 1.05262C4.84957 1.09011 4.89054 1.13686 4.92131 1.19019L7.90256 6.35348C7.53401 6.30191 7.16077 6.2568 6.78928 6.30308L4.10979 1.65894ZM2.64495 10.4627C2.92737 10.2166 3.2467 10.1298 3.61585 10.0296C4.12503 9.89019 4.71096 9.73258 5.2969 9.14488C5.76565 8.68082 5.89045 8.29586 5.99299 7.98648C6.07385 7.74215 6.12249 7.59449 6.33752 7.41754C6.73128 7.0941 7.13088 7.13219 7.86096 7.23531C8.54827 7.33199 9.40374 7.45211 10.411 7.06773C11.2395 6.75133 11.6016 6.31597 11.8922 5.96676C12.143 5.665 12.2942 5.48336 12.7078 5.41012C13.3301 5.29996 13.7807 5.59469 14.3485 5.96793C14.9795 6.37808 15.7635 6.89605 16.943 6.86734C17.6684 6.85035 18.1201 6.65758 18.4823 6.50289C18.6205 6.43836 18.764 6.38583 18.9112 6.34586L18.9428 6.33941C19.0895 6.31145 19.2408 6.31787 19.3846 6.35816C19.7168 6.44078 19.8422 6.6359 20.0936 7.0689C20.3602 7.52769 20.6918 8.09898 21.4787 8.62867C22.0741 9.03004 22.5639 9.15953 22.9576 9.26383C23.4018 9.38101 23.5899 9.43961 23.7844 9.72848C23.9215 9.93121 23.9432 10.0742 23.9918 10.4961C24.0229 10.7632 24.0651 11.1283 24.1676 11.6257C24.2732 12.1279 24.4114 12.6227 24.5813 13.107H18.6862L18.8543 12.9382C18.8975 12.898 18.9321 12.8495 18.9561 12.7956C18.9802 12.7417 18.9931 12.6835 18.9941 12.6245C18.9952 12.5655 18.9843 12.5069 18.9622 12.4521C18.9401 12.3974 18.9072 12.3477 18.8655 12.306C18.8237 12.2643 18.774 12.2314 18.7193 12.2093C18.6646 12.1872 18.606 12.1763 18.547 12.1773C18.488 12.1784 18.4298 12.1913 18.3759 12.2153C18.322 12.2393 18.2735 12.274 18.2332 12.3171L17.4428 13.107H9.89709L10.0653 12.9382C10.1429 12.8549 10.1851 12.7448 10.1831 12.6309C10.1811 12.5171 10.135 12.4084 10.0545 12.3279C9.97398 12.2474 9.86535 12.2013 9.7515 12.1993C9.63766 12.1973 9.52747 12.2395 9.44417 12.3171L8.65374 13.107H1.83225C1.8094 11.8408 2.08128 10.9519 2.64319 10.4627H2.64495ZM19.3266 27.6623C19.3261 28.0697 19.1639 28.4604 18.8756 28.7483C18.5874 29.0363 18.1966 29.198 17.7891 29.198H9.21096C8.8038 29.1975 8.41345 29.0356 8.12554 28.7477C7.83764 28.4598 7.67569 28.0694 7.67522 27.6623V26.7511C9.34435 27.5408 11.1678 27.9506 13.0143 27.9511H13.9858C15.8323 27.9506 17.6557 27.5408 19.3248 26.7511L19.3266 27.6623ZM21.4946 24.3148C19.3968 26.0943 16.7355 27.0714 13.9846 27.0722H13.0143C10.1523 27.0732 7.39116 26.0157 5.26204 24.1032C3.13291 22.1908 1.78628 19.5585 1.48128 16.7129H25.5188C25.2035 19.6694 23.763 22.3913 21.4957 24.3148H21.4946ZM25.5768 15.8339H1.4221C1.40542 15.3047 1.425 14.775 1.48069 14.2484C1.48539 14.2042 1.50007 14.1617 1.52362 14.124C1.54717 14.0864 1.57897 14.0546 1.61663 14.031L1.62307 14.0275C1.66841 14.0004 1.72024 13.986 1.77307 13.9859H25.2258C25.2985 13.9855 25.3688 14.0122 25.4229 14.0607C25.477 14.1092 25.5112 14.1761 25.5188 14.2484C25.5747 14.7749 25.5944 15.3047 25.578 15.8339H25.5768ZM3.72131 12.3687C3.77903 12.3689 3.83621 12.3575 3.88952 12.3354C3.94283 12.3133 3.99121 12.2808 4.03186 12.2398L4.94944 11.3228C5.03188 11.2404 5.07819 11.1286 5.07819 11.012C5.07819 10.8954 5.03188 10.7836 4.94944 10.7011C4.867 10.6187 4.75519 10.5724 4.6386 10.5724C4.52201 10.5724 4.4102 10.6187 4.32776 10.7011L3.4096 11.6199C3.34826 11.6815 3.30654 11.7598 3.28968 11.8451C3.27282 11.9303 3.28158 12.0187 3.31486 12.0989C3.34814 12.1792 3.40444 12.2478 3.47667 12.2962C3.5489 12.3445 3.63382 12.3703 3.72073 12.3705L3.72131 12.3687ZM13.3893 11.4898C13.447 11.4899 13.5042 11.4786 13.5575 11.4565C13.6108 11.4344 13.6592 11.4019 13.6998 11.3609L14.6174 10.4439C14.6998 10.3615 14.7462 10.2497 14.7462 10.1331C14.7462 10.0165 14.6998 9.90467 14.6174 9.82223C14.535 9.73979 14.4232 9.69347 14.3066 9.69347C14.19 9.69347 14.0782 9.73979 13.9957 9.82223L13.0776 10.741C13.0162 10.8025 12.9745 10.8809 12.9576 10.9662C12.9408 11.0514 12.9495 11.1397 12.9828 11.22C13.0161 11.3003 13.0724 11.3689 13.1446 11.4173C13.2169 11.4656 13.3018 11.4914 13.3887 11.4916L13.3893 11.4898ZM9.87366 9.73199C9.93138 9.73213 9.98855 9.72081 10.0419 9.69868C10.0952 9.67656 10.1436 9.64406 10.1842 9.60309L11.1018 8.68609C11.1842 8.60365 11.2305 8.49184 11.2305 8.37525C11.2305 8.25867 11.1842 8.14685 11.1018 8.06441C11.0193 7.98197 10.9075 7.93566 10.7909 7.93566C10.6744 7.93566 10.5625 7.98197 10.4801 8.06441L9.56194 8.98316C9.50061 9.04473 9.45888 9.12309 9.44202 9.20834C9.42516 9.29359 9.43392 9.38193 9.4672 9.46221C9.50048 9.54249 9.55678 9.61112 9.62901 9.65945C9.70124 9.70777 9.78617 9.73363 9.87307 9.73375L9.87366 9.73199Z" fill="black"/>
</svg>
