<svg width="23" height="18" viewBox="0 0 23 18" fill="none" xmlns="http://www.w3.org/2000/svg">
<path d="M22.676 1.88498V6.04326C22.676 6.38451 22.6614 6.72342 22.6303 7.05998C22.1496 12.3962 17.9142 16.6506 12.5878 17.1651H10.4149C5.08589 16.6508 0.850503 12.3965 0.3698 7.06022C0.348157 6.81233 0.333698 6.56386 0.32644 6.31514C0.324097 6.22373 0.324097 6.1349 0.324097 6.0435V1.88498C0.324097 1.64082 0.421091 1.40665 0.593741 1.234C0.766392 1.06135 1.00056 0.964357 1.24472 0.964357H21.7553C21.8763 0.964171 21.9961 0.987858 22.1079 1.03406C22.2197 1.08026 22.3212 1.14806 22.4067 1.23359C22.4923 1.31911 22.5601 1.42068 22.6063 1.53245C22.6525 1.64423 22.6762 1.76403 22.676 1.88498Z" fill="#E1EBF0"/>
</svg>
