<svg width="24" height="5" viewBox="0 0 24 5" fill="none" xmlns="http://www.w3.org/2000/svg">
<path d="M0.484375 2.76849C0.355 2.76849 0.25 2.66349 0.25 2.53411V0.682079C0.25 0.552704 0.355 0.447704 0.484375 0.447704C0.61375 0.447704 0.71875 0.552704 0.71875 0.682079V2.53411C0.71875 2.66349 0.61375 2.76849 0.484375 2.76849ZM4.23438 3.77536C4.105 3.77536 4 3.67036 4 3.54099V1.65661C4 1.52724 4.105 1.42224 4.23438 1.42224C4.36375 1.42224 4.46875 1.52724 4.46875 1.65661V3.54099C4.46875 3.67083 4.36375 3.77536 4.23438 3.77536ZM7.98438 4.2727C7.855 4.2727 7.75 4.1677 7.75 4.03833V2.16333C7.75 2.03395 7.855 1.92895 7.98438 1.92895C8.11375 1.92895 8.21875 2.03395 8.21875 2.16333V4.03833C8.21875 4.1677 8.11375 4.2727 7.98438 4.2727ZM11.7344 4.4138C11.605 4.4138 11.5 4.3088 11.5 4.17942V2.30442C11.5 2.17505 11.605 2.07005 11.7344 2.07005C11.8638 2.07005 11.9688 2.17505 11.9688 2.30442V4.17942C11.9688 4.3088 11.8638 4.4138 11.7344 4.4138ZM15.4844 4.23052C15.355 4.23052 15.25 4.12552 15.25 3.99614V2.12114C15.25 1.99177 15.355 1.88677 15.4844 1.88677C15.6138 1.88677 15.7188 1.99177 15.7188 2.12114V3.99614C15.7188 4.12552 15.6138 4.23052 15.4844 4.23052ZM19.2344 3.68677C19.105 3.68677 19 3.58177 19 3.45239V1.57739C19 1.44802 19.105 1.34302 19.2344 1.34302C19.3638 1.34302 19.4688 1.44802 19.4688 1.57739V3.45239C19.4688 3.58177 19.3638 3.68677 19.2344 3.68677ZM22.9844 2.58521C22.855 2.58521 22.75 2.48021 22.75 2.35083V0.47583C22.75 0.346455 22.855 0.241455 22.9844 0.241455C23.1138 0.241455 23.2188 0.346455 23.2188 0.47583V2.35083C23.2188 2.48067 23.1138 2.58521 22.9844 2.58521Z" fill="#D3374E"/>
</svg>
